<svg viewBox="0 0 512 512" xmlns="http://www.w3.org/2000/svg"><path d="M255.9 69.2c6.1 0 11.9 1.2 17.3 3.5s10.1 5.5 14.2 9.4c4 3.9 7.2 8.6 9.6 14 2.3 5.4 3.5 11.1 3.5 17.1s-1.2 11.9-3.5 17.2-5.5 10-9.6 13.9c-4 3.9-8.8 7.1-14.2 9.4s-11.2 3.5-17.3 3.5-11.9-1.2-17.3-3.5-10.1-5.5-14-9.4c-4-3.9-7.1-8.6-9.4-13.9s-3.5-11.1-3.5-17.2 1.2-11.7 3.5-17.1 5.5-10.1 9.4-14 8.6-7.1 14-9.4 11.2-3.5 17.3-3.5M289 183.6v259.2h-66.6V183.6zM255.9 49.4a64.18 64.18 0 0 0-45.4 18.7 64.18 64.18 0 0 0-13.6 20.2c-3.4 7.9-5.1 16.3-5.1 24.9s1.7 17.3 5.2 25.2c3.3 7.6 7.9 14.3 13.6 20 2.2 2.2 4.6 4.2 7.1 6.1-8.6 2.2-14.9 10-14.9 19.2v259.2c0 11 8.9 19.8 19.8 19.8H289c10.9 0 19.8-8.9 19.8-19.8V183.6c0-9.2-6.2-16.9-14.7-19.2a63.76 63.76 0 0 0 20.9-26.1c3.4-7.8 5.2-16.3 5.2-25.2s-1.7-17-5.1-24.9c-3.4-7.8-8-14.6-13.9-20.3A66.24 66.24 0 0 0 281 54.4c-7.8-3.3-16.3-5-25.1-5z"/></svg>