<svg width="310" height="159" fill="none" xmlns="http://www.w3.org/2000/svg"><path fill-rule="evenodd" clip-rule="evenodd" d="M102.8.13c6.03 0 5.53 9.3-.56 11.82 5.83 4.73 1.64 17.9-7.4 17.91-10.62 0-12.5-14.2-6.13-19.11l1.14 1.85c-2.94 2.3-3.55 7.53-1.46 11.04.44-.65.83-1.35 1.17-2.07l8.22-17.13c1.36-2.9 3.3-4.31 5.01-4.31ZM90.36 25.75a7.5 7.5 0 0 0 4.37 1.27c7.35 0 10.18-12.7 3.11-14.51l-.85-.1-5.12 10.72c-.44.92-.95 1.8-1.51 2.62Zm10.09-20.6L98 10.25c3.09-.07 4.8-.89 5.98-3.54 1.52-3.47-1.32-6.19-3.53-1.56Z" fill="#fff"/><path fill-rule="evenodd" clip-rule="evenodd" d="m220.9 20.06.2-.28c.26.08.5.23.71.44.2.2.38.46.5.75-2.48 3.5-5.36 6.69-9.77 6.8h-.18a2.92 2.92 0 0 1-2.1-.79 4.12 4.12 0 0 1-1.23-2.19l1.7-1.03c.07.2.16.37.28.51.12.15.26.26.42.33.29.13.61.11.9-.04.27-.16.5-.45.6-.8l4.58-9.63c.8-1.66-1.31-3.72-4.72 1.87l-9.08 19.15h-3.06l5.53-11.63a7.11 7.11 0 0 1-3.25.97h-.68c-3.3 5.04-8.66 4.13-8.66-.57-1.87 2.19-3.82 3.8-5.58 3.8-2.45 0-3.36-2.51-2.08-5.23l3.94-8.28c1.32-2.74-.75-3.65-5.42 3.47l-4.6 9.73h-3.07l1.04-2.2a9.93 9.93 0 0 1-4.66 2.45h-.09c-.28.07-.57.07-.85.07a2.93 2.93 0 0 1-2.1-.78 4.12 4.12 0 0 1-1.23-2.19l1.85-1.2c.11.37.3.69.56.92.25.24.56.39.88.43 1.89 0 2.25-3.01 2.62-6.16.19-1.6.38-3.24.79-4.53l-.57.92a105.8 105.8 0 0 1-3.75 5.8c-2.5 3.54-5.46 6.8-7.9 6.8-2.46 0-3.37-2.5-2.08-5.23l3.2-6.76a2.15 2.15 0 0 0-.17-2.06l-.41-.6-.56.9a124.79 124.79 0 0 1-4.46 6.99c-2.55 3.53-5.97 6.8-9.38 6.8-2.68 0-4.27-2.02-4.11-4.68a7.75 7.75 0 0 1-4.7 1.45 7.35 7.35 0 0 1-2.24 2.41c-.88.6-1.87.93-2.88 1-1.96 0-3.5-1.42-3.5-3.93-1.88 2.17-3.83 3.77-5.58 3.77-2.45 0-3.36-2.5-2.08-5.23l3.21-6.75a2.15 2.15 0 0 0-.18-2.07l-.4-.6-.56.9c-2.08 3.39-3.12 5.08-4.46 6.99-2.51 3.54-5.4 6.8-7.9 6.8-1.55 0-2.5-1-2.64-2.42-1.45 1.46-2.97 2.41-4.2 2.41-2.45 0-3.36-2.5-2.07-5.23l4.26-8.91c1.29-2.7 3.56-4.25 5.2-4.25.8-.02 1.58.33 2.18 1 .6.65.96 1.57 1.02 2.54h1.7l-4.9 10.4c-.7 1.5-.32 2.08.35 2.08 1.35 0 3.47-2.42 5.67-5.53l.2-.28c1.96-2.86 3.78-5.97 5.12-8.27l-.27-.42c-1.08-1.7-.92-3.79.79-5.66l1.58 2.07-.13.11c-.12.13-.21.29-.28.46a1.65 1.65 0 0 0-.03 1.13c.06.18.15.34.26.48l1.7 2.47c1 1.45 1.49 2.75.44 4.99l-3.04 6.44c-.7 1.5-.32 2.07.35 2.07 1.35 0 3.48-2.42 5.67-5.53l.16-.21 8.5-17.81h3.1l-3.86 8.1c.58-.51 1.28-.8 2-.82h.34c.34.02.66.13.97.3.3.19.57.44.8.74a3.7 3.7 0 0 1 .64 2.25c-.1 1.5-.49 2.96-1.15 4.23l-2.86 5.98a5.6 5.6 0 0 0 2.52-.8 6.8 6.8 0 0 0 2.06-1.92l.18-.25 2.96-6.2a7.42 7.42 0 0 1 2.32-3.06 5.63 5.63 0 0 1 3.29-1.17c2.48 0 4.06 2.56 2.42 5.95l-.43.92c-2.28 4.77-5.96 5.27-7.91 4.24l-.29.64c-1.4 2.97-.29 4.39 1.58 4.39 2.13 0 4.93-2.42 7.12-5.53l.2-.28c1.93-2.8 3.7-5.83 5.03-8.1l.1-.17-.26-.42c-1.09-1.7-.92-3.79.78-5.66l1.58 2.07-.1.1c-.1.13-.2.29-.26.46a1.71 1.71 0 0 0 0 1.13c.06.18.15.34.27.47l1.7 2.47c1 1.45 1.49 2.75.44 4.99l-3.04 6.44c-.7 1.5-.32 2.07.35 2.07 1.35 0 3.47-2.42 5.66-5.52l.2-.28c2.18-3.1 4.36-6.77 5.8-9.2l.95-1.6 2.28 1.5c-1.14 2.86-1.51 5.96-1.84 8.75-.22 1.8-.41 3.46-.8 4.84a20.7 20.7 0 0 0 3.63-4l.17-.24 8.42-17.87h3.04l-4.85 10.23c1.56-1.92 2.96-2.8 4.27-2.8 1.7 0 2.95 2.02 1.64 4.81l-4.38 9.3c-.7 1.5-.32 2.08.35 2.08 1.35 0 3.47-2.42 5.66-5.52l.17-.23 1.24-2.57 1.5-3.1c1.74-3.68 3.55-4.8 5.89-4.8 2.86 0 4.55 3.63 2.71 7.49l-2.86 5.98a5.64 5.64 0 0 0 2.52-.8 6.85 6.85 0 0 0 2.06-1.92l.2-.28 4.75-9.98h3.04l-.62 1.27c3.1-3.36 7.68-1.4 4.85 4.43l-3.35 6.97c-.2.36-.37.78-.56 1.23-.21.5-.44 1.02-.7 1.53a14.97 14.97 0 0 0 5.55-5.17Zm-65.85-4.68c1.8-3.81-1.33-4.41-3.04-.77l-1.95 4.13c1.14.5 3.1.57 4.55-2.44l.44-.92Zm-46.85 10.2c1.25 0 3.06-1.67 4.9-5.17l2.43-5.08c1.46-3.32-1.78-4.2-3.41-.77l-4.27 8.95c-.7 1.5-.32 2.07.35 2.07Zm26.96-.48c.22.23.5.35.8.33l-.01-.04c.48-.04.94-.22 1.34-.54.4-.31.73-.75.96-1.26-.53-.43-.97-1-1.3-1.65a6.22 6.22 0 0 1-.63-2.16l-1.02 2.32c-.3.58-.49 1.24-.53 1.92v.16c.03.36.17.68.39.92Zm2.98-4.73c.23.58.56 1.09.98 1.48l3.1-6.45a5.2 5.2 0 0 0 .59-2.37c0-.18-.03-.36-.09-.53a1.48 1.48 0 0 0-.25-.46c-.1-.13-.23-.24-.37-.31a.99.99 0 0 0-.44-.11c-1.73 0-3.83 4.28-3.83 6.9-.02.64.09 1.27.31 1.85Zm63.16-.36h.16l2.2-4.63c1.84-3.82-1.08-5.55-3.2-1.17l-3.75 7.87c-1.8 3.83 1.67 4.39 3.1 1.42v-.07a2.78 2.78 0 0 1-.16-2.07c.1-.27.22-.5.39-.71.17-.2.36-.37.58-.48.22-.1.45-.16.68-.16Z" fill="#fff"/><path d="M4.87 69.98 0 75.89l4.87 5.94 4.87-5.94-4.87-5.91ZM305.12 69.99l-4.87 5.9 4.89 5.94 4.86-5.94-4.88-5.9ZM143.22 128.21h1.2c4.63.3 8.26 1.8 10.57 4.88 2.33-3.1 5.97-4.6 10.63-4.88h1.15c6.32.52 10.54 4.09 14.75 7.65 2.67 2.26 5.34 4.51 8.53 6a8.1 8.1 0 0 0 4.09 1.03c2.12-.28 3.46-2.88 3.19-5.77-.3-3.1-2.8-5.8-5.6-4.31a3.69 3.69 0 0 0-1.13 1.01c-.2.27-.43.62-.86.44-.49-.49-.06-1.19.22-1.63l.04-.07a5.7 5.7 0 0 1 2.2-2.53 4.34 4.34 0 0 1 2.98-.58c4.8.42 9.1 5.53 8.37 13.26-1.64 11.51-10.32 14.62-20.62 15.65h-3.35c-8.99-.44-17.6-4.44-24.54-11.38-7 6.92-15.64 10.9-24.65 11.38h-3.3c-10.37-1.1-19.14-4.14-20.66-15.99-.58-8.44 3.56-12.59 8.37-13a4.4 4.4 0 0 1 3.02.57c.93.55 1.7 1.43 2.22 2.52l.06.13c.25.47.59 1.13.2 1.65-.42.1-.67-.22-.87-.48l-.12-.15c-.31-.4-.69-.7-1.1-.93a2.92 2.92 0 0 0-1.3-.34c-3.3-.15-5.2 4.3-3.88 7.87.25.7.65 1.3 1.16 1.76.5.45 1.1.75 1.71.85 1.41 0 2.8-.35 4.09-1.04 1.15-.53 2.25-1.2 3.3-1.96 1.63-1.15 3.16-2.42 4.7-3.68 4.38-3.62 8.75-7.23 15.23-7.93Z" fill="#fff"/><path fill-rule="evenodd" clip-rule="evenodd" d="M47.1 73.48c.24-.62.37-1.3.37-2V58.34a5.3 5.3 0 0 0-1.15-3.32 3.62 3.62 0 0 0-2.74-1.4H30.24v44.6h13.35c1.02-.03 2-.53 2.73-1.41a5.35 5.35 0 0 0 1.16-3.32V78.9a6.35 6.35 0 0 0-.4-2.08 5.48 5.48 0 0 0-1.02-1.73c.44-.44.8-.99 1.04-1.61ZM36.54 61.26h4.57v10.77h-4.57V61.26Zm0 18.4h4.57V90.5h-4.57V79.67ZM74.48 55.01a3.62 3.62 0 0 0-2.74-1.4h-9.47a3.3 3.3 0 0 0-1.5.36c-.46.24-.9.59-1.26 1.02-.36.44-.64.96-.84 1.54-.2.57-.3 1.18-.3 1.8V93.5a5.3 5.3 0 0 0 1.16 3.32 3.62 3.62 0 0 0 2.74 1.4h9.47c1.02-.03 2-.53 2.73-1.41a5.35 5.35 0 0 0 1.16-3.31V58.33a5.3 5.3 0 0 0-1.15-3.32Zm-9.78 6.25h4.56l.01 29.24H64.7V61.26ZM95.29 79.67l2.56 18.53h6.28l-2.63-18.98a4.13 4.13 0 0 0 1.64-1.7c.4-.74.6-1.6.6-2.5V58.33c.01-.61-.08-1.22-.28-1.8a4.87 4.87 0 0 0-.82-1.52 3.93 3.93 0 0 0-1.25-1.02 3.3 3.3 0 0 0-1.48-.37H86.57V98.2h6.3V79.67h2.42Zm-2.43-18.41h4.57v10.77h-4.57V61.26ZM129.96 55.01a3.62 3.62 0 0 0-2.75-1.4h-9.5c-1.02.02-2 .52-2.72 1.4a5.27 5.27 0 0 0-1.12 3.32V93.5c.01 1.24.42 2.44 1.15 3.32a3.62 3.62 0 0 0 2.74 1.4h9.45c1.03-.03 2-.53 2.73-1.41a5.35 5.35 0 0 0 1.16-3.31V58.33c0-1.24-.42-2.44-1.14-3.32Zm-9.8 6.25h4.58V90.5h-4.57V61.26ZM158.11 55.01a3.62 3.62 0 0 0-2.74-1.4h-13.34v44.6h13.34c1.03-.02 2-.52 2.73-1.4a5.35 5.35 0 0 0 1.16-3.31V58.33c0-1.24-.42-2.44-1.15-3.32Zm-9.78 6.25h4.58V90.5h-4.58V61.26Z" fill="#fff"/><path d="M176.8 53.62h-6.3V98.2h6.3V53.62ZM204.86 98.2V53.62h-6.33v18.27l-4.62-18.27h-6.25V98.2h6.27V78.73l4.63 19.47h6.3ZM231.87 73.42a3.62 3.62 0 0 0-2.74-1.4h-7.02V61.27h4.57v7.88l6.35-1.79v-9.02a5.3 5.3 0 0 0-1.14-3.32 3.62 3.62 0 0 0-2.74-1.4h-9.47a3.3 3.3 0 0 0-1.49.37c-.47.24-.9.58-1.25 1.02-.36.44-.65.96-.84 1.53-.2.57-.3 1.18-.3 1.8v16.64c0 .62.1 1.23.3 1.8.2.57.49 1.1.85 1.53.36.43.79.78 1.26 1.01.47.24.97.36 1.48.36h6.99V90.5h-4.57v-7.97l-6.3 1.78v9.18a5.3 5.3 0 0 0 1.14 3.31c.72.88 1.7 1.38 2.73 1.4h9.45c1.03-.02 2-.52 2.73-1.4a5.35 5.35 0 0 0 1.16-3.31V76.74a5.3 5.3 0 0 0-1.15-3.32ZM261.97 98.21l-5.89-22.36 5.94-22.23h-6.4l-4.84 18.4h-.52v-18.4h-6.3V98.2h6.3V79.68h.58l4.72 18.27.05.26h6.36ZM278.6 53.62h-6.31V98.2h6.3V53.62Z" fill="#fff"/></svg>