<svg width="250" height="100" fill="none" xmlns="http://www.w3.org/2000/svg"><path d="M46.93 0v98.06H33.82v-6.67c-2.94 5.28-7.08 8.61-12.94 8.61C9.48 100 0 83.89 0 63.06 0 42.22 9.49 26.1 20.88 26.1c5.86 0 10.18 3.33 12.94 8.61V0h13.1ZM33.82 63.06c0-10.56-4.32-17.23-10.36-17.23-6.03 0-10.35 6.67-10.35 17.23 0 10.55 4.32 17.22 10.35 17.22C29.5 80 33.82 73.6 33.82 63.06ZM75.4 81.11c3.62 0 6.55-2.22 8.28-5.28l10.52 9.73C89.9 95 83.5 100 75.22 100c-14.83 0-24.15-16.11-24.15-36.94 0-20.84 9.32-36.95 23.12-36.95 12.77 0 22.08 15.83 22.08 36.95 0 3.05-.17 5.83-.52 8.33H64.88c1.73 7.22 5.7 9.72 10.53 9.72Zm7.93-25.28c-1.38-8.05-5.35-11.1-9.31-11.1-5 0-8.29 3.88-9.5 11.1h18.81ZM141.65 28.06l-16.05 70h-14.83l-16.05-70h14.5l9.14 44.44 9.14-44.44h14.15ZM143.9 28.06H157v70h-13.1v-70ZM161.5 63.06c0-20.84 9.82-36.95 23.11-36.95 8.45 0 15.87 7.22 19.67 18.06l-11.39 10.55c-1.55-5-4.66-7.78-8.45-7.78-5.7 0-9.84 6.67-9.84 16.12 0 9.72 4.14 16.1 9.84 16.1 3.8 0 7.07-3.05 8.45-7.77l11.39 10.55C200.66 92.78 193.24 100 184.6 100c-13.29 0-23.12-16.11-23.12-36.94ZM229.12 81.11c3.63 0 6.56-2.22 8.28-5.28l10.53 9.73C243.62 95 237.23 100 228.95 100c-14.84 0-24.15-16.11-24.15-36.94 0-20.84 9.49-36.95 23.12-36.95 12.76 0 22.08 15.83 22.08 36.95 0 3.05-.17 5.83-.52 8.33H218.6c1.72 7.22 5.7 9.72 10.52 9.72Zm8.11-25.28c-1.38-8.05-5.35-11.1-9.31-11.1-5 0-8.29 3.88-9.5 11.1h18.81Z" fill="#000"/></svg>