<svg xmlns="http://www.w3.org/2000/svg" width="50" height="50"><path d="M25 2C12.3 2 2 12.3 2 25s10.3 23 23 23 23-10.3 23-23S37.7 2 25 2zm0 2c11.61 0 21 9.39 21 21s-9.39 21-21 21S4 36.61 4 25 13.39 4 25 4zM15 18h-4.03s-.23-.01-.51.03c-.28.03-.7.05-1.12.53-.38.43-.36.93-.31 1.2.04.28.15.48.15.49.04.1 2.97 7.27 6.66 11.13 2.6 2.72 5.4 3.62 7.87 3.62H25c.42 0 .8-.02 1.22-.24.42-.21.78-.81.78-1.28 0-.5.01-.98.08-1.26.06-.25.03-.19.06-.19a4.4 4.4 0 0 1 .91.55c.6.48 1.33 1.17 2.14 1.7 1.16.77 2.42.72 2.42.72h4.2s.64-.02 1.3-.42c.33-.2.71-.57.85-1.12a2.17 2.17 0 0 0-.36-1.64c-.12-.19-.69-1.01-2.96-3.03-.6-.52-1-.9-1.15-1.09l-.07-.07c.01-.03.14-.3.5-.76.36-.48.92-1.14 1.63-2.05a14.66 14.66 0 0 0 1.96-3.23c.2-.47.34-.9.43-1.28.08-.4.15-.71.02-1.17a1.5 1.5 0 0 0-.6-.81 1.84 1.84 0 0 0-.7-.27c-.41-.07-.78-.06-1.13-.06l-4.2.03c-.32 0-.81.13-1.04.26-.58.32-.75.77-.75.77l-.06.1-.03.1s-.73 2.38-1.49 3.6c-.89 1.44-1.55 2-1.84 2.17l-.03.02a1.4 1.4 0 0 1-.07-.33c-.04-.38-.02-.91-.02-1.43 0-1.44.1-2.33-.01-3.18-.06-.42-.21-.9-.56-1.25-.35-.37-.8-.55-1.24-.65-.47-.1-.97-.2-2.18-.21-1.54-.01-2.54.03-3.43.43h-.01c-.36.17-.64.36-.88.62-.12.12-.27.22-.37.62-.05.2-.05.58.17.89.23.3.55.4.74.42-.04 0 .15.04.29.11.14.07.26.17.3.21-.02-.01.12.32.15.63.04.3.03.55.03.55v.13s.07.67.03 1.38c-.01.35-.06.7-.12.92v.01a7.81 7.81 0 0 1-1.63-2.1 19.96 19.96 0 0 1-1.42-3.4l-.02-.04-.01-.05s-.13-.49-.7-.89c-.53-.37-1.04-.42-1.04-.42L15 18zm-.23 2 .2.07-.02-.07.03.08c-.05-.04 0 0 0 0 .03.1.64 2.2 1.6 3.78.86 1.44 1.5 2.24 2.2 2.72.7.48 1.64.43 2.12.18.64-.33.82-.88.94-1.33.13-.45.17-.92.2-1.35.03-.83-.04-1.51-.04-1.58 0-.04 0-.36-.04-.8a3.13 3.13 0 0 0-.54-1.54c.44-.07.68-.17 1.57-.16 1.13.01 1.3.06 1.75.16.24.06.27.1.24.08-.02-.03 0-.04.03.15.05.4-.01 1.39-.01 2.9 0 .43-.04 1.03.03 1.66.07.62.27 1.43 1.03 1.9.43.27 1.26.36 2.04-.07.78-.44 1.58-1.27 2.56-2.87.98-1.58 1.56-3.66 1.62-3.88h.04l4.21-.03.4.02c-.05.21-.12.46-.26.79a12.8 12.8 0 0 1-1.7 2.77c-.69.89-1.23 1.53-1.64 2.07-.41.53-.74.96-.87 1.57-.14.61.12 1.3.47 1.74.36.44.8.8 1.38 1.32 2.2 1.96 2.56 2.55 2.6 2.6l.02.03-.29.09H32.6s-.75-.02-1.3-.4c-.6-.38-1.3-1.03-2.03-1.6a5.8 5.8 0 0 0-1.16-.74 2.2 2.2 0 0 0-1.54-.16c-.83.25-1.3 1.04-1.44 1.67-.1.44-.09.84-.1 1.23h-1.32c-2.03 0-4.14-.62-6.42-3-2.97-3.1-5.62-9.09-6.01-10h3.49zm17.44 0c-.02.01.04.02.08.02-.01-.02-.05-.02-.08-.01z"/></svg>