<svg xmlns="http://www.w3.org/2000/svg" width="32" height="32"><path d="M26.07 4c-.34.01-.65.1-.93.22-.3.11-1.65.68-3.7 1.55l-7.39 3.1-10.5 4.43.06-.02s-.36.11-.73.37c-.2.13-.4.3-.6.57-.17.27-.32.68-.27 1.1.1.73.56 1.16.9 1.4.34.24.66.36.66.36l4.9 1.64 1.78 5.84c.18.57.36.93.58 1.2a1.12 1.12 0 0 0 .63.46h-.06l.04.01.12.02c.77.24 1.4-.24 1.4-.24l.03-.03 2.88-2.62 4.83 3.7.11.05c1.01.44 2.03.2 2.57-.24s.75-1 .75-1l.04-.08L27.9 6.66c.1-.48.14-.92.02-1.35A1.8 1.8 0 0 0 26.07 4Zm-.1 2.05-.02.17v.01l-3.7 18.93c-.02.03-.04.09-.12.15-.08.06-.14.1-.46-.03l-5.91-4.53L12.19 24l.75-4.79s9.26-8.62 9.65-9c.4-.37.27-.44.27-.44.03-.46-.6-.14-.6-.14l-12.18 7.55v-.02l-5.84-1.97h-.01l.03-.02.03-.01.03-.02 10.5-4.42 7.39-3.11 3.66-1.53c.08-.03.04-.03.1-.03Z"/></svg>