<svg xmlns="http://www.w3.org/2000/svg" width="48" height="48"><path d="M12 3C9.25 3 7 5.25 7 8v25a1 1 0 1 0 2 0V8c0-1.67 1.33-3 3-3h26c.57 0 1 .43 1 1v29c0 .57-.43 1-1 1H11.5A4.52 4.52 0 0 0 7 40.5c0 2.47 2.03 4.5 4.5 4.5H40a1 1 0 1 0 0-2H11.5C10.1 43 9 41.9 9 40.5s1.1-2.5 2.5-2.5H38c1.64 0 3-1.36 3-3V6c0-1.64-1.36-3-3-3H12zm12.5 7.03a4.3 4.3 0 0 0-3.41 1.61A5.35 5.35 0 0 0 20 14.97c0 1.18.34 2.38 1.09 3.33a4.3 4.3 0 0 0 3.41 1.61 4.3 4.3 0 0 0 3.41-1.61A5.35 5.35 0 0 0 29 14.97c0-1.18-.34-2.38-1.09-3.33a4.3 4.3 0 0 0-3.41-1.6zm0 2c.89 0 1.42.33 1.84.85.42.53.66 1.3.66 2.1 0 .78-.24 1.55-.66 2.08-.42.52-.95.85-1.84.85-.89 0-1.42-.33-1.84-.85a3.44 3.44 0 0 1-.66-2.09c0-.78.24-1.56.66-2.09.42-.52.95-.85 1.84-.85zm0 8.97c-3.88 0-7.27 2.75-8.46 6.71a1 1 0 1 0 1.92.58c.96-3.21 3.61-5.29 6.54-5.29s5.58 2.08 6.54 5.29a1 1 0 1 0 1.92-.58C31.76 23.75 28.38 21 24.5 21z"/></svg>