<svg xmlns="http://www.w3.org/2000/svg" viewBox="0 0 24 24" width="48" height="48"><path d="M6.25 2A2.26 2.26 0 0 0 4 4.25v15.5A2.26 2.26 0 0 0 6.25 22h11.5A2.26 2.26 0 0 0 20 19.75v-13a.75.75 0 0 0-.22-.53l-4-4a.75.75 0 0 0-.53-.22h-9zm0 1.5H14v3.75a.75.75 0 0 0 .75.75h3.75v11.75c0 .42-.33.75-.75.75H6.25a.74.74 0 0 1-.75-.75V4.25c0-.42.33-.75.75-.75zm9.25.56 2.44 2.44H15.5V4.06zM8.75 10a.75.75 0 1 0 0 1.5h6.5a.75.75 0 1 0 0-1.5h-6.5zm0 3a.75.75 0 1 0 0 1.5h6.5a.75.75 0 1 0 0-1.5h-6.5zm0 3a.75.75 0 1 0 0 1.5h4.5a.75.75 0 1 0 0-1.5h-4.5z"/></svg>