<svg xmlns="http://www.w3.org/2000/svg" width="50" height="50"><path d="M25 2C12.31 2 2 12.31 2 25s10.31 23 23 23 23-10.31 23-23S37.69 2 25 2zm0 2c11.6 0 21 9.4 21 21v.21c-.65-.06-1.38-.11-2.32-.15-1.33-.04-3-.03-4.9.07.06-.5.11-1 .11-1.5a8.56 8.56 0 0 0-1.55-5.17c.25-.86.54-1.94.6-3.18.1-1.4-.03-2.96-1.16-4.01L36.5 11h-.39a8.86 8.86 0 0 0-5.64 2.01A15.03 15.03 0 0 0 25 12c-2.02 0-3.86.4-5.55 1.02A8.86 8.86 0 0 0 13.8 11h-.4l-.28.27c-1.1 1.02-1.2 2.53-1.13 3.93.06 1.23.33 2.35.57 3.25a9.5 9.5 0 0 0-1.66 5.15c0 .51.05 1.01.12 1.5a59.4 59.4 0 0 0-4.7-.05c-.94.03-1.67.09-2.31.15L4 25C4 13.4 13.4 4 25 4zm-10.6 9.13c2.01.2 3.53 1.1 4.23 1.72l.47.41.58-.23A13.82 13.82 0 0 1 25 14c1.97 0 3.74.38 5.2 1.02l.59.25.47-.42a7.74 7.74 0 0 1 4.25-1.72c.26.45.5 1.08.44 2.04-.07 1.14-.37 2.39-.6 3.13l-.15.48.3.41a6.64 6.64 0 0 1 1.4 4.35v.06c0 2.5-.9 4.5-2.81 5.97C32.17 31.05 29.15 32 24.9 32c-4.25 0-7.28-.95-9.19-2.43a7.12 7.12 0 0 1-2.81-5.97c0-1.47.53-3.08 1.5-4.4l.3-.4-.14-.48c-.23-.79-.52-2.07-.57-3.22-.05-.96.18-1.56.4-1.97zm-5.52 12.9c.71 0 1.52.04 2.33.08.08.31.17.62.28.92-3.31.07-5.79.4-7.31.68-.06-.5-.12-1-.14-1.51 1.12-.1 2.71-.2 4.84-.18zm32.24 0c2.13-.02 3.72.08 4.84.18-.03.5-.08 1-.14 1.5a46.27 46.27 0 0 0-7.51-.68c.1-.29.19-.6.27-.9.9-.05 1.76-.08 2.54-.1zm-29.2 1.99a9.03 9.03 0 0 0 2.57 3.13 13.66 13.66 0 0 0 5.99 2.47c-.32.33-.61.7-.87 1.07l-.06-.05s-.5.25-1.25.31c-.75.07-1.68.05-2.5.05-1.22 0-1.76-.58-2.63-1.63a7.1 7.1 0 0 0-1.62-1.56c-.58-.4-1.07-.7-1.68-.8L9.78 31H9.7c-.47 0-.92.03-1.34.52-.21.24-.36.68-.26 1.06.1.38.33.61.54.75 1.37.91 1.61 2.72 2.47 4.32.8 1.6 2.53 2.35 4.29 2.35H18v4.8A21 21 0 0 1 4.33 28.7a45 45 0 0 1 7.58-.68zm25.96 0c3.57.04 6.2.38 7.79.68A21 21 0 0 1 32 44.8v-5.2c0-1.58-.52-3.33-1.43-4.79-.27-.44-.6-.86-.95-1.24a13.45 13.45 0 0 0 5.7-2.42 9 9 0 0 0 2.56-3.12zM23.7 34.1h2.8c.81 0 1.68.65 2.38 1.77A7.75 7.75 0 0 1 30 39.6v5.8a21.08 21.08 0 0 1-10 0v-5.8c0-1.1.47-2.59 1.2-3.71.75-1.12 1.69-1.79 2.5-1.79zm-11.4 1.18c.87.9 1.92 1.72 3.5 1.72.78 0 1.75.03 2.68-.05-.12.34-.2.7-.28 1.05h-2.8c-1.23 0-2.1-.45-2.5-1.25l-.01-.01v-.01c-.17-.3-.39-.92-.58-1.45z"/></svg>